<?xml version="1.0" standalone="no"?>
<!DOCTYPE svg PUBLIC "-//W3C//DTD SVG 20010904//EN"
 "http://www.w3.org/TR/2001/REC-SVG-20010904/DTD/svg10.dtd">
<svg version="1.0" xmlns="http://www.w3.org/2000/svg"
 width="544.000000pt" height="886.000000pt" viewBox="0 0 544.000000 886.000000"
 preserveAspectRatio="xMidYMid meet">
<metadata>
Created by potrace 1.16, written by Peter Selinger 2001-2019
</metadata>
<g transform="translate(0.000000,886.000000) scale(0.100000,-0.100000)"
fill="#000000" stroke="none">
<path d="M1213 8853 c670 -2 1764 -2 2430 0 667 1 119 2 -1218 2 -1337 0
-1882 -1 -1212 -2z"/>
<path d="M1769 8629 c-6 -12 -8 -38 -5 -58 14 -86 14 -86 -24 -86 -41 -1 -80
-16 -99 -39 -12 -14 -11 -19 4 -36 16 -17 20 -18 34 -6 39 34 114 55 206 59
34 1 99 -15 123 -31 12 -8 22 -10 22 -6 0 5 5 1 11 -8 10 -18 39 -14 39 6 0
17 -37 46 -58 46 -10 0 -22 3 -26 8 -4 4 -18 7 -29 7 -28 0 -34 36 -13 67 21
30 21 49 -1 41 -13 -5 -15 -2 -10 16 7 28 -15 38 -49 22 -20 -9 -30 -8 -47 4
-30 21 -64 19 -78 -6z"/>
<path d="M1692 8361 c-23 -4 -50 -15 -59 -23 -14 -15 -14 -19 3 -47 10 -18 29
-34 41 -38 15 -3 25 -15 29 -32 10 -46 25 -79 40 -85 15 -6 44 19 44 38 0 6 6
18 13 25 6 6 12 17 12 24 0 15 69 21 92 8 17 -10 17 -10 -2 -11 -45 -1 -47
-17 -6 -37 39 -19 41 -20 57 -2 9 10 14 24 12 31 -3 8 12 19 40 29 85 29 105
92 36 111 -41 12 -301 18 -352 9z"/>
<path d="M1982 7881 c-16 -33 -19 -48 -11 -63 6 -11 7 -46 4 -86 -5 -48 -2
-85 9 -130 9 -34 14 -67 11 -71 -3 -5 1 -42 9 -83 8 -40 19 -109 26 -153 6
-44 13 -95 16 -112 5 -34 18 -43 27 -20 10 26 -13 196 -37 272 -32 100 -44
235 -34 362 10 125 7 139 -20 84z"/>
<path d="M1902 7677 c-5 -6 -12 -21 -14 -32 -5 -27 -40 -26 -53 3 -5 12 -13
22 -17 22 -5 0 -8 -62 -8 -137 l1 -138 17 35 c10 19 25 46 34 60 9 14 22 45
28 70 7 24 18 53 26 64 24 35 11 84 -14 53z"/>
<path d="M2610 7163 c0 -12 6 -26 14 -32 12 -10 16 -8 22 11 7 20 9 18 14 -16
6 -45 30 -62 30 -22 0 14 5 26 10 26 6 0 10 -17 10 -37 l1 -38 15 28 c20 37
28 34 19 -10 l-7 -37 22 24 c21 25 21 25 17 2 -3 -14 -1 -20 6 -15 6 4 8 -2 5
-15 -3 -12 -2 -22 4 -24 5 -2 12 -22 15 -46 6 -42 16 -54 26 -28 4 10 41 15
139 21 147 9 140 16 -31 34 -57 6 -98 15 -102 23 -22 34 -9 47 94 87 56 22 96
40 89 40 -8 1 -59 -8 -114 -19 l-101 -21 -36 23 c-61 39 -79 47 -121 54 -36 6
-40 4 -40 -13z"/>
<path d="M2051 7060 c0 -39 4 -70 9 -70 9 0 15 45 11 78 -2 11 13 12 73 7 124
-12 141 -17 141 -45 0 -23 -5 -26 -58 -34 -46 -7 -57 -12 -55 -25 2 -11 17
-17 52 -21 42 -4 50 -9 65 -38 l17 -34 17 26 c9 14 17 36 17 50 0 14 5 28 11
32 6 3 9 15 6 25 -3 11 -1 17 3 14 14 -9 23 16 11 28 -6 6 -11 16 -11 22 1 5
10 -1 22 -15 l21 -25 -7 35 c-10 54 -22 58 -61 20 -24 -23 -35 -29 -35 -18 0
12 -15 17 -67 21 -38 3 -88 4 -112 3 -35 -2 -45 1 -49 16 -10 39 -20 14 -21
-52z"/>
<path d="M2456 6953 c-4 -5 -28 -15 -53 -23 -41 -14 -46 -19 -48 -50 -2 -22
-12 -42 -29 -57 -20 -17 -28 -36 -33 -73 l-6 -50 31 6 c27 6 33 3 41 -19 5
-14 15 -28 20 -32 6 -3 8 -17 5 -31 -7 -28 13 -57 34 -49 8 3 36 -15 67 -43
62 -57 93 -61 139 -19 16 15 34 27 41 27 24 0 62 39 89 92 24 46 26 54 12 64
-17 12 -21 40 -7 48 4 3 17 -1 27 -9 10 -8 23 -15 28 -15 13 0 -4 93 -21 112
-11 13 -14 28 -9 58 5 34 4 40 -12 40 -10 0 -27 7 -38 15 -10 8 -27 15 -36 15
-14 0 -13 -4 7 -25 29 -28 31 -38 10 -58 -16 -17 -10 -28 12 -20 19 8 33 -14
32 -52 0 -24 -2 -26 -8 -11 -5 14 -12 2 -25 -47 -19 -72 -60 -120 -112 -133
-36 -9 -128 13 -149 36 -9 10 -23 44 -31 77 -26 99 -28 113 -13 113 8 0 27 7
44 16 16 8 40 12 53 9 19 -5 23 -2 20 12 -2 12 -11 17 -23 15 -81 -14 -85 -14
-85 0 0 7 11 26 25 41 14 15 22 27 17 27 -5 0 -12 -3 -16 -7z"/>
<path d="M2020 6470 c-41 -39 -77 -70 -81 -70 -20 0 -16 21 7 39 36 28 21 26
-50 -8 -54 -26 -59 -31 -61 -62 -1 -19 -8 -48 -15 -66 -14 -32 -13 -33 34 -78
26 -25 52 -45 57 -45 5 0 16 26 24 58 45 160 65 199 107 214 20 7 35 22 45 45
8 20 13 37 11 39 -2 1 -37 -28 -78 -66z"/>
<path d="M2067 6117 c-16 -20 -16 -22 -1 -25 13 -3 11 -9 -12 -33 -15 -16 -37
-29 -49 -29 -21 0 -55 -28 -55 -46 -1 -5 -15 -18 -33 -29 -31 -20 -52 -75 -28
-75 5 0 22 -22 37 -50 31 -57 44 -63 44 -21 0 17 5 33 10 36 6 3 10 13 10 21
0 9 11 30 25 48 14 18 25 38 25 44 0 23 32 107 48 124 11 13 12 24 6 38 -9 19
-9 19 -27 -3z"/>
<path d="M3672 5510 l41 -60 -36 -35 c-20 -19 -43 -35 -52 -35 -11 0 -15 -6
-10 -19 3 -11 -1 -24 -11 -32 -14 -11 -19 -10 -34 9 -25 31 -30 28 -30 -20 -1
-24 -7 -54 -15 -68 -19 -34 -19 -50 3 -50 37 0 80 41 150 144 l72 108 -37 46
c-73 90 -101 98 -41 12z"/>
<path d="M1889 5278 c-18 -25 -24 -45 -24 -84 0 -72 21 -94 90 -94 58 0 65 7
65 65 0 18 9 52 20 76 24 53 26 77 7 60 -8 -6 -17 -8 -20 -5 -3 4 -14 -10 -23
-30 -19 -38 -29 -43 -55 -23 -11 8 -14 18 -8 32 12 30 11 35 -9 35 -10 0 -29
-15 -43 -32z"/>
<path d="M3429 5073 c-8 -10 -23 -35 -33 -56 -29 -57 -37 -60 -90 -36 -26 11
-50 18 -53 15 -3 -2 0 -40 7 -83 6 -43 13 -89 14 -103 2 -14 4 -28 5 -32 2
-12 47 -10 74 3 14 6 30 22 36 36 27 59 73 273 59 273 -3 0 -11 -8 -19 -17z"/>
<path d="M2393 4238 c-45 -51 -106 -125 -137 -165 -31 -39 -72 -81 -91 -93
-36 -22 -50 -59 -17 -45 9 4 25 10 35 13 26 7 103 91 154 167 23 35 51 69 62
77 10 7 29 31 40 53 12 22 29 50 38 63 8 12 11 22 6 22 -5 0 -45 -42 -90 -92z"/>
<path d="M3100 3960 c-52 -33 -142 -85 -200 -116 -161 -86 -189 -106 -190
-131 0 -37 10 -51 71 -89 32 -21 59 -44 59 -51 0 -15 -77 -67 -170 -112 -35
-18 -66 -34 -68 -36 -2 -1 8 -14 21 -27 l25 -25 43 49 c59 65 101 90 133 82
25 -6 26 -5 26 39 0 25 5 49 10 52 14 9 12 35 -2 35 -7 0 -35 14 -61 31 -51
31 -60 60 -22 68 11 2 38 19 60 39 l39 36 11 -44 11 -44 14 34 c8 19 19 40 25
46 6 7 24 27 39 45 23 27 31 31 46 22 12 -8 21 -8 28 -1 15 15 32 1 32 -28 0
-24 23 -34 35 -14 8 13 54 2 77 -17 24 -21 37 -9 29 29 -5 25 -16 38 -46 53
-21 11 -40 25 -41 30 -2 6 15 22 36 37 24 17 40 36 40 48 0 11 -3 20 -7 20 -5
-1 -51 -27 -103 -60z"/>
<path d="M2005 3481 c-3 -12 -3 -25 0 -31 3 -5 -4 -11 -17 -11 -30 -2 -30 -2
-51 7 -18 6 -18 2 -11 -87 4 -52 7 -107 6 -122 -1 -25 1 -27 14 -17 8 7 12 20
9 29 -3 10 4 27 15 39 23 24 25 44 8 71 -25 41 17 67 62 39 26 -17 42 4 36 46
-5 33 -12 41 -43 50 -16 5 -23 2 -28 -13z"/>
<path d="M1599 2439 c-14 -27 -4 -129 18 -179 l16 -35 7 56 c8 67 15 79 41 79
10 0 19 5 19 10 0 6 15 8 39 4 32 -5 39 -3 43 13 10 39 -21 60 -99 67 -67 6
-73 5 -84 -15z"/>
<path d="M2442 2093 l3 -58 75 0 75 0 0 55 0 55 -78 3 -78 3 3 -58z"/>
<path d="M1986 1813 c-1 -2 -138 -3 -304 -4 -178 0 -304 -5 -308 -10 -3 -6 0
-17 7 -25 9 -11 14 -12 19 -3 16 25 784 29 865 4 43 -13 51 -13 65 0 9 8 30
15 46 15 16 0 36 5 44 10 10 7 -13 10 -75 10 -49 1 -150 2 -223 3 -74 1 -135
1 -136 0z"/>
<path d="M2534 1801 c5 -7 162 -11 474 -12 584 -2 614 -3 628 -12 7 -4 14 -1
17 7 4 11 -4 16 -31 19 -82 10 -1094 9 -1088 -2z"/>
<path d="M1468 1703 c-68 -4 -68 -4 -68 -33 0 -43 31 -183 45 -200 25 -32 37
-201 31 -428 -3 -123 -10 -230 -15 -240 -6 -12 -5 -23 4 -36 19 -25 33 -13 27
24 -2 16 1 36 7 44 7 9 8 17 2 20 -11 7 -13 144 -1 151 5 3 3 18 -3 35 -9 24
-8 32 6 48 10 11 15 26 11 35 -3 8 0 25 6 36 9 17 8 22 -5 27 -19 8 -20 48 0
64 11 9 12 16 5 25 -11 14 -6 127 6 147 5 7 7 23 6 35 -2 11 1 24 7 28 7 4 7
12 -1 24 -6 11 -8 33 -4 54 l7 37 77 0 c42 0 95 -5 117 -11 22 -6 51 -13 65
-16 14 -3 29 -13 35 -22 8 -13 11 -9 15 19 l5 35 115 6 c63 3 230 4 370 3 140
-2 385 -3 543 -4 l288 -1 9 -25 c9 -23 11 -24 32 -10 16 9 56 15 123 16 55 0
109 3 120 6 11 2 25 1 31 -3 15 -11 25 -66 14 -83 -5 -8 -3 -19 7 -28 9 -9 12
-24 9 -38 -3 -12 -1 -26 5 -30 6 -4 9 -20 6 -39 -7 -43 8 -69 21 -35 13 34 26
93 24 103 -1 5 7 41 19 80 35 117 47 167 40 171 -7 4 -246 9 -340 7 -51 -1
-62 -4 -57 -16 8 -22 -34 -30 -156 -28 -62 0 -106 -3 -102 -8 7 -13 -1 -11
-42 6 -22 9 -42 12 -52 6 -25 -12 -183 -12 -214 0 -22 9 -30 8 -42 -4 -12 -12
-22 -12 -50 -3 -67 21 -33 31 90 28 65 -1 139 2 164 7 37 7 40 9 15 10 -301
12 -364 9 -332 -13 26 -19 5 -38 -39 -34 l-39 3 23 21 c23 21 23 21 2 27 -33
9 -602 8 -596 -1 2 -4 105 -9 228 -11 328 -4 323 -4 323 -21 0 -12 -19 -15
-100 -17 -55 -1 -139 -4 -187 -7 -58 -4 -89 -2 -94 5 -4 7 -24 9 -55 5 -52 -7
-138 1 -160 14 -10 7 -10 11 0 24 12 14 -1 16 -135 14 -82 -1 -179 -3 -216 -5z"/>
<path d="M2018 1479 c-12 -20 -18 -52 -18 -95 l0 -64 90 0 90 0 0 -30 c0 -16
7 -33 16 -38 13 -7 16 -34 17 -163 2 -130 4 -154 17 -154 23 0 27 494 5 542
l-16 33 -92 0 -92 0 -17 -31z"/>
<path d="M2420 1486 c-5 -13 -14 -27 -19 -31 -14 -8 -14 -90 -1 -116 9 -16 22
-19 90 -19 l80 0 0 -30 c0 -19 7 -33 20 -40 17 -9 20 -21 20 -90 l0 -80 -85 0
-85 0 0 -70 c0 -67 1 -70 20 -58 13 8 16 16 10 22 -6 6 -10 25 -10 43 l0 33
55 0 55 0 0 -34 c0 -19 -5 -38 -11 -41 -13 -9 28 -39 59 -43 20 -2 22 1 22 45
0 26 1 144 4 260 3 133 1 215 -5 219 -6 3 -14 17 -19 30 -9 23 -14 24 -100 24
-86 0 -91 -1 -100 -24z"/>
<path d="M2810 1491 c0 -13 -10 -21 -32 -25 -29 -6 -31 -9 -17 -19 9 -7 20
-34 23 -62 4 -27 9 -52 12 -57 3 -4 43 -8 90 -8 l84 0 0 -30 c0 -18 6 -33 15
-36 12 -5 15 -33 15 -166 0 -146 1 -159 18 -156 16 3 17 25 20 261 2 220 0
260 -13 273 -8 9 -15 22 -15 30 0 11 -20 14 -100 14 -91 0 -100 -2 -100 -19z"/>
<path d="M2388 3 c452 -2 1192 -2 1645 0 452 1 82 2 -823 2 -905 0 -1275 -1
-822 -2z"/>
</g>
</svg>
